<svg xmlns="http://www.w3.org/2000/svg" x="0px" y="0px" width="100" height="100" viewBox="0,0,256,256"
style="fill:#FD7E14;">
<g fill="#fd7e14" fill-rule="nonzero" stroke="none" stroke-width="1" stroke-linecap="butt" stroke-linejoin="miter" stroke-miterlimit="10" stroke-dasharray="" stroke-dashoffset="0" font-family="none" font-weight="none" font-size="none" text-anchor="none" style="mix-blend-mode: normal"><g transform="scale(2.56,2.56)"><path d="M50,16c-0.25575,0 -0.51153,0.09747 -0.70703,0.29297l-45,45c-0.391,0.391 -0.391,1.02306 0,1.41406l9,9c0.391,0.391 1.02306,0.391 1.41406,0l8.29297,-8.29297l8.29297,8.29297c0.391,0.391 1.02306,0.391 1.41406,0l8.29297,-8.29297l8.29297,8.29297c0.391,0.391 1.02306,0.391 1.41406,0l8.29297,-8.29297l8.29297,8.29297c0.391,0.391 1.02306,0.391 1.41406,0l8.29297,-8.29297l8.29297,8.29297c0.195,0.195 0.45103,0.29297 0.70703,0.29297c0.256,0 0.51203,-0.09797 0.70703,-0.29297l9,-9c0.391,-0.391 0.391,-1.02306 0,-1.41406l-45,-45c-0.1955,-0.1955 -0.45128,-0.29297 -0.70703,-0.29297zM50,18.41406l7.68945,7.68945l-7.68945,7.68945l-7.68945,-7.68945zM41.60352,26.81055l7.68945,7.68945l-8.29297,8.29297l-7.68945,-7.68945zM58.39648,26.81055l8.29297,8.29297l-7.68945,7.68945l-8.29297,-8.29297zM50,35.20703l8.29297,8.29297l-8.29297,8.29297l-8.29297,-8.29297zM32.60352,35.81055l7.68945,7.68945l-8.29297,8.29297l-3.89648,-3.89648c-0.195,-0.195 -0.51203,-0.195 -0.70703,0c-0.195,0.195 -0.195,0.51203 0,0.70703l3.89648,3.89648l-8.29297,8.29297l-7.68945,-7.68945l8.29297,-8.29297l1.75586,1.75586c0.098,0.097 0.22552,0.14648 0.35352,0.14648c0.128,0 0.25652,-0.04948 0.35352,-0.14648c0.195,-0.195 0.195,-0.51203 0,-0.70703l-1.75586,-1.75586zM67.39648,35.81055l8.29297,8.29297l-7.68945,7.68945l-8.29297,-8.29297zM41,44.20703l8.29297,8.29297l-8.29297,8.29297l-8.29297,-8.29297zM59,44.20703l8.29297,8.29297l-8.29297,8.29297l-6.68164,-6.68164c-0.195,-0.195 -0.51203,-0.195 -0.70703,0c-0.195,0.195 -0.195,0.51203 0,0.70703l6.57813,6.57813l-8.18945,8.18945l-8.18945,-8.18945l8.54297,-8.54297zM76.39648,44.81055l8.29297,8.29297l-1.00781,1.00781c-0.195,0.195 -0.195,0.51203 0,0.70703c0.098,0.097 0.22552,0.14648 0.35352,0.14648c0.128,0 0.25652,-0.04948 0.35352,-0.14648l1.00781,-1.00781l8.18945,8.18945l-7.58594,7.58594l-8.18945,-8.18945l4.82422,-4.82422c0.195,-0.195 0.195,-0.51203 0,-0.70703c-0.195,-0.195 -0.51203,-0.195 -0.70703,0l-4.92773,4.92773l-8.29297,-8.29297zM32,53.20703l8.18945,8.18945l-8.18945,8.18945l-8.18945,-8.18945zM68,53.20703l8.18945,8.18945l-8.18945,8.18945l-8.18945,-8.18945zM14.60352,53.81055l7.58594,7.58594l-8.18945,8.18945l-7.58594,-7.58594z"></path></g></g>
</svg>