<?xml version="1.0" ?><!DOCTYPE svg  PUBLIC '-//W3C//DTD SVG 1.1//EN'  'http://www.w3.org/Graphics/SVG/1.1/DTD/svg11.dtd'><svg enable-background="new 0 0 1024 1024" height="1024px" id="Layer_1" version="1.1" viewBox="0 0 1024 1024" width="1024px" xml:space="preserve" xmlns="http://www.w3.org/2000/svg" xmlns:xlink="http://www.w3.org/1999/xlink"><g><g><path clip-rule="evenodd" d="M901.285,348.137C743.548,447.423,758.485,674.191,929,751.812     c-5.608,14.846-10.838,29.97-16.978,44.717c-25.439,61.099-61.176,115.913-103.757,166.259     c-23.68,27.997-51.368,50.852-89.077,57.357c-28.846,4.977-56.276-0.616-83.222-11.277c-22.031-8.716-44.07-18.454-67.035-23.539     c-39.511-8.751-78.309-2.984-116.102,12.019c-23.737,9.424-48.049,18.04-72.825,24.049c-30.153,7.31-58.873-1.161-82.04-20.544     c-22.479-18.806-43.76-39.819-62.113-62.641c-73.223-91.051-117.941-195.095-134.846-310.656     c-11.528-78.798-8.549-156.85,27.495-229.575c46.455-93.736,121.71-145.898,228.213-147.828     c28.41-0.513,54.986,9.275,81.271,19.128c18.652,6.992,37.232,14.197,56.042,20.735c16.446,5.715,33.151,5.738,49.643-0.292     c26.98-9.868,53.831-20.101,80.917-29.67c95.157-33.624,210.581-0.684,269.547,77.972     C896.604,341.32,898.895,344.749,901.285,348.137z" fill-rule="evenodd"/><path clip-rule="evenodd" d="M511.399,237.306c-3.656-25.967-1.37-49.134,5.836-71.504     C545.589,77.778,604.962,23.071,695.231,2.466c21.5-4.908,21.935-4.113,21.912,17.66     c-0.105,97.149-72.172,191.02-163.462,212.074C540.142,235.322,525.952,235.623,511.399,237.306z" fill-rule="evenodd"/></g></g></svg>